<svg version="1.1" xmlns="http://www.w3.org/2000/svg"  viewBox="0 0 88 88" width="88" height="88"><path d="M0 0 C29.04 0 58.08 0 88 0 C88 29.04 88 58.08 88 88 C58.96 88 29.92 88 0 88 C0 58.96 0 29.92 0 0 Z " transform="translate(0,0)" style="fill: #A81B21;"></path><path d="M0 0 C3 1 3 1 4.76171875 4.25390625 C5.41343576 5.68568828 6.05468154 7.12226542 6.6875 8.5625 C7.39000124 10.11285325 8.09448059 11.66231147 8.80078125 13.2109375 C9.16123535 14.00467773 9.52168945 14.79841797 9.89306641 15.61621094 C11.93728792 20.01845595 14.15911197 24.33239628 16.38549805 28.64477539 C18.27430019 32.35493978 19.78848695 36.01669194 21 40 C17.37 40 13.74 40 10 40 C10.66 41.65 11.32 43.3 12 45 C17.94 45 23.88 45 30 45 C29.33355469 43.67234619 28.66710937 42.34469238 27.98046875 40.97680664 C25.51850011 36.07091081 23.05914097 31.16371082 20.60058594 26.25610352 C19.53424575 24.12846532 18.4671893 22.00118595 17.39941406 19.87426758 C15.868576 16.82466208 14.34028214 13.7737936 12.8125 10.72265625 C12.09066528 9.28672874 12.09066528 9.28672874 11.35424805 7.8217926 C10.9137915 6.94095505 10.47333496 6.06011749 10.01953125 5.15258789 C9.62870361 4.37315323 9.23787598 3.59371857 8.83520508 2.79066467 C8 1 8 1 8 0 C9.65 0 11.3 0 13 0 C18.7744197 10.81889018 24.43855513 21.69509169 30 32.625 C30.56356201 33.71409668 31.12712402 34.80319336 31.70776367 35.92529297 C39.11454192 50.585598 39.11454192 50.585598 37 58 C37 58.66 37 59.32 37 60 C35.02 60 33.04 60 31 60 C30.67 59.34 30.34 58.68 30 58 C29.34 58.66 28.68 59.32 28 60 C25.375 59.625 25.375 59.625 23 59 C22.3125 57.25 22.3125 57.25 22 55 C23.48046875 52.859375 23.48046875 52.859375 25 51 C23.91460937 51.06703125 22.82921875 51.1340625 21.7109375 51.203125 C12.99043963 51.4152507 12.99043963 51.4152507 9 50 C5.55362688 46.16633088 3 41.27540509 3 36 C6.63 36 10.26 36 14 36 C12.82630859 33.70482422 12.82630859 33.70482422 11.62890625 31.36328125 C10.60645284 29.34651535 9.58433492 27.32957934 8.5625 25.3125 C8.04623047 24.30509766 7.52996094 23.29769531 6.99804688 22.25976562 C6.50498047 21.28330078 6.01191406 20.30683594 5.50390625 19.30078125 C5.04830322 18.40528564 4.5927002 17.50979004 4.12329102 16.5871582 C3.018708 14.04308816 2.43265054 11.73151015 2 9 C1.34 9 0.68 9 0 9 C-1.14314158 13.57256632 -1.34044249 15.90260393 1 20.0625 C1.391875 20.67222656 1.78375 21.28195313 2.1875 21.91015625 C3.63589631 25.63559868 2.55510036 28.64251388 1.08203125 32.24487305 C-0.06890905 34.79031887 -1.27278583 37.30297999 -2.5 39.8125 C-2.91636719 40.68326172 -3.33273438 41.55402344 -3.76171875 42.45117188 C-6.83828712 48.83828712 -6.83828712 48.83828712 -8 50 C-10.69654854 50.07319621 -13.36691458 50.09242537 -16.0625 50.0625 C-17.20041992 50.05573242 -17.20041992 50.05573242 -18.36132812 50.04882812 C-20.24091871 50.0370068 -22.12046899 50.01907078 -24 50 C-14.28699135 29.38009868 -14.28699135 29.38009868 -10 21 C-8 22 -8 22 -7.25805664 23.77832031 C-6.92781654 26.62144699 -7.61059431 27.99134189 -8.87109375 30.546875 C-9.48500977 31.81337891 -9.48500977 31.81337891 -10.11132812 33.10546875 C-10.54896484 33.97816406 -10.98660156 34.85085937 -11.4375 35.75 C-11.87126953 36.63816406 -12.30503906 37.52632812 -12.75195312 38.44140625 C-13.82419132 40.63301399 -14.90710233 42.8186409 -16 45 C-12.41550314 44.63776898 -12.41550314 44.63776898 -9.68212891 42.51293945 C-9.36679199 41.88605225 -9.05145508 41.25916504 -8.7265625 40.61328125 C-8.37722656 39.92169922 -8.02789062 39.23011719 -7.66796875 38.51757812 C-7.32378906 37.78990234 -6.97960937 37.06222656 -6.625 36.3125 C-6.25761719 35.60416016 -5.89023437 34.89582031 -5.51171875 34.16601562 C-3.34934634 29.74743199 -2.46078886 26.8909513 -4 22 C-4.86625 20.6078125 -4.86625 20.6078125 -5.75 19.1875 C-7.35859046 15.08559432 -6.59494592 13.2489917 -5.0390625 9.2578125 C-3.55245728 6.02751995 -1.86747241 3.02659322 0 0 Z " transform="translate(38,13)" style="fill: #F6EEED;"></path><path d="M0 0 C1.32 0.33 2.64 0.66 4 1 C4 2.32 4 3.64 4 5 C4.66 4.67 5.32 4.34 6 4 C6.65213292 1.97536745 6.65213292 1.97536745 7 0 C7.99 0 8.98 0 10 0 C10 1.65 10 3.3 10 5 C10.99 5 11.98 5 13 5 C13.33 3.35 13.66 1.7 14 0 C14.66 0 15.32 0 16 0 C16 2.64 16 5.28 16 8 C12.86149936 8.92553743 10.06319222 9.11664647 6.796875 9.09765625 C5.8171875 9.09443359 4.8375 9.09121094 3.828125 9.08789062 C2.81234375 9.07951172 1.7965625 9.07113281 0.75 9.0625 C-0.796875 9.05573242 -0.796875 9.05573242 -2.375 9.04882812 C-4.91672573 9.03706088 -7.45833319 9.02062011 -10 9 C-8.87548273 6.0280615 -7.77706209 3.66559313 -6 1 C-5.34 1 -4.68 1 -4 1 C-2.375 3.5 -2.375 3.5 -1 6 C-0.67 4.02 -0.34 2.04 0 0 Z " transform="translate(24,65)" style="fill: #B75457;"></path><path d="M0 0 C0.8838766 3.12957789 0.93779448 4.87401841 0 8 C0 8.66 0 9.32 0 10 C-1.98 10 -3.96 10 -6 10 C-6.33 9.34 -6.66 8.68 -7 8 C-7.66 8.66 -8.32 9.32 -9 10 C-11.625 9.625 -11.625 9.625 -14 9 C-14.75 7.3125 -14.75 7.3125 -15 5 C-11.9565158 -1.69566525 -6.37318807 -0.49447149 0 0 Z " transform="translate(75,63)" style="fill: #A81B22;"></path><path d="M0 0 C0.66 0 1.32 0 2 0 C4.04169485 2.90548882 5 4.40142046 5 8 C2.03 8 -0.94 8 -4 8 C-2.87548273 5.0280615 -1.77706209 2.66559313 0 0 Z " transform="translate(18,66)" style="fill: #C47B7C;"></path><path d="M0 0 C2.31 0 4.62 0 7 0 C6.67 2.64 6.34 5.28 6 8 C4.02 8 2.04 8 0 8 C0 5.36 0 2.72 0 0 Z " transform="translate(69,65)" style="fill: #E6CCCB;"></path><path d="M0 0 C2.4375 0.375 2.4375 0.375 5 1 C5.33 1.66 5.66 2.32 6 3 C4.35 3 2.7 3 1 3 C1 3.66 1 4.32 1 5 C2.65 5 4.3 5 6 5 C5.01 6.485 5.01 6.485 4 8 C2.35 7.67 0.7 7.34 -1 7 C-1.625 5.1875 -1.625 5.1875 -2 3 C-1.34 2.01 -0.68 1.02 0 0 Z " transform="translate(62,65)" style="fill: #E3C9C7;"></path><path d="M0 0 C1.32 0.99 2.64 1.98 4 3 C4.33 2.01 4.66 1.02 5 0 C5.66 0 6.32 0 7 0 C7 2.31 7 4.62 7 7 C4.525 6.01 4.525 6.01 2 5 C2 5.66 2 6.32 2 7 C1.34 7 0.68 7 0 7 C0 4.69 0 2.38 0 0 Z " transform="translate(52,66)" style="fill: #EAD5D3;"></path><path d="M0 0 C0.66 0 1.32 0 2 0 C5 4.38461538 5 4.38461538 5 7 C2.36 7 -0.28 7 -3 7 C-1.125 2.25 -1.125 2.25 0 0 Z " transform="translate(45,66)" style="fill: #E3C8C6;"></path><path d="M0 0 C0.99 0 1.98 0 3 0 C3.33 2.64 3.66 5.28 4 8 C2.68 8 1.36 8 0 8 C0 5.36 0 2.72 0 0 Z " transform="translate(31,65)" style="fill: #D7A9A9;"></path><path d="M0 0 C0.66 0 1.32 0 2 0 C2 1.98 2 3.96 2 6 C2.99 6 3.98 6 5 6 C5 6.66 5 7.32 5 8 C3.35 8 1.7 8 0 8 C0 5.36 0 2.72 0 0 Z " transform="translate(25,65)" style="fill: #DEBCBC;"></path><path d="M0 0 C0.33 0.99 0.66 1.98 1 3 C-1.31 3.66 -3.62 4.32 -6 5 C-6 3.68 -6 2.36 -6 1 C-3.92446352 0.4465236 -2.15634036 0 0 0 Z " transform="translate(69,66)" style="fill: #A93135;"></path><path d="M0 0 C0.66 0 1.32 0 2 0 C5 4.38461538 5 4.38461538 5 7 C3.35 7 1.7 7 0 7 C0.2784375 6.1028125 0.2784375 6.1028125 0.5625 5.1875 C1.22093687 2.83591238 1.22093687 2.83591238 0 0 Z " transform="translate(18,66)" style="fill: #EBDAD8;"></path></svg>